<svg width="54" height="47" viewBox="0 0 54 47" fill="none" xmlns="http://www.w3.org/2000/svg">
<path d="M22.9004 16H30.1636C34.6512 16 35.3337 13.1808 36.1614 9.06908C36.4002 7.88311 36.5196 7.29013 36.2325 6.89507C35.9454 6.5 35.3951 6.5 34.2945 6.5H33.9004M20.9004 6.5H22.9004" stroke="white" stroke-width="1.5" stroke-linecap="round"/>
<path d="M25.9004 8.5C26.3919 9.0057 27.7002 11 28.4004 11M28.4004 11C29.1006 11 30.4089 9.0057 30.9004 8.5M28.4004 11V3" stroke="white" stroke-width="1.5" stroke-linecap="round" stroke-linejoin="round"/>
<path d="M22.9004 16L20.2791 3.51493C20.0565 2.62459 19.2566 2 18.3388 2H17.4004" stroke="white" stroke-width="1.5" stroke-linecap="round"/>
<path d="M23.7804 16H23.369C22.0056 16 20.9004 17.1513 20.9004 18.5714C20.9004 18.8081 21.0846 19 21.3118 19H32.4004" stroke="white" stroke-width="1.5" stroke-linecap="round" stroke-linejoin="round"/>
<path d="M25.4004 22C26.2288 22 26.9004 21.3284 26.9004 20.5C26.9004 19.6716 26.2288 19 25.4004 19C24.572 19 23.9004 19.6716 23.9004 20.5C23.9004 21.3284 24.572 22 25.4004 22Z" stroke="white" stroke-width="1.5"/>
<path d="M32.4004 22C33.2288 22 33.9004 21.3284 33.9004 20.5C33.9004 19.6716 33.2288 19 32.4004 19C31.572 19 30.9004 19.6716 30.9004 20.5C30.9004 21.3284 31.572 22 32.4004 22Z" stroke="white" stroke-width="1.5"/>
<path d="M21.9824 39.749C21.9824 39.8219 21.9801 39.8857 21.9756 39.9404C21.971 39.9951 21.9619 40.043 21.9482 40.084C21.9391 40.125 21.9255 40.1615 21.9072 40.1934C21.889 40.2253 21.8571 40.264 21.8115 40.3096C21.766 40.3551 21.6702 40.4258 21.5244 40.5215C21.3786 40.6126 21.1963 40.7038 20.9775 40.7949C20.7633 40.8815 20.515 40.9544 20.2324 41.0137C19.9544 41.0775 19.6491 41.1094 19.3164 41.1094C18.7422 41.1094 18.2227 41.0137 17.7578 40.8223C17.2975 40.6309 16.9033 40.3483 16.5752 39.9746C16.2516 39.6009 16.001 39.1406 15.8232 38.5938C15.6501 38.0423 15.5635 37.4089 15.5635 36.6934C15.5635 35.9596 15.6569 35.3057 15.8438 34.7314C16.0352 34.1572 16.3018 33.6719 16.6436 33.2754C16.9854 32.8743 17.3932 32.569 17.8672 32.3594C18.3457 32.1497 18.8743 32.0449 19.4531 32.0449C19.7083 32.0449 19.9567 32.07 20.1982 32.1201C20.4398 32.1657 20.6631 32.2249 20.8682 32.2979C21.0732 32.3708 21.2555 32.4551 21.415 32.5508C21.5745 32.6465 21.6839 32.7262 21.7432 32.79C21.807 32.8493 21.848 32.8949 21.8662 32.9268C21.8844 32.9587 21.8981 32.9974 21.9072 33.043C21.9209 33.084 21.93 33.1341 21.9346 33.1934C21.9437 33.2526 21.9482 33.3232 21.9482 33.4053C21.9482 33.4964 21.9437 33.5739 21.9346 33.6377C21.9255 33.7015 21.9118 33.7562 21.8936 33.8018C21.8753 33.8428 21.8525 33.8747 21.8252 33.8975C21.8024 33.9157 21.7728 33.9248 21.7363 33.9248C21.6725 33.9248 21.5837 33.8815 21.4697 33.7949C21.3558 33.7038 21.2077 33.6058 21.0254 33.501C20.8477 33.3916 20.6289 33.2936 20.3691 33.207C20.1139 33.1159 19.8063 33.0703 19.4463 33.0703C19.0544 33.0703 18.6966 33.1501 18.373 33.3096C18.054 33.4645 17.7806 33.6947 17.5527 34C17.3249 34.3053 17.1471 34.679 17.0195 35.1211C16.8965 35.5586 16.835 36.0599 16.835 36.625C16.835 37.1855 16.8942 37.6823 17.0127 38.1152C17.1357 38.5436 17.3089 38.9036 17.5322 39.1953C17.7601 39.4824 18.0381 39.7012 18.3662 39.8516C18.6943 39.9974 19.0658 40.0703 19.4805 40.0703C19.8314 40.0703 20.1367 40.027 20.3965 39.9404C20.6608 39.8538 20.8841 39.7581 21.0664 39.6533C21.2533 39.5439 21.4059 39.446 21.5244 39.3594C21.6429 39.2728 21.7363 39.2295 21.8047 39.2295C21.8366 39.2295 21.8639 39.2363 21.8867 39.25C21.9095 39.2637 21.9277 39.291 21.9414 39.332C21.9551 39.3685 21.9642 39.4209 21.9688 39.4893C21.9779 39.5576 21.9824 39.6442 21.9824 39.749ZM28.0559 40.8359C28.0559 40.8906 28.0377 40.9316 28.0012 40.959C27.9648 40.9863 27.9146 41.0068 27.8508 41.0205C27.787 41.0342 27.6936 41.041 27.5705 41.041C27.4521 41.041 27.3564 41.0342 27.2834 41.0205C27.2151 41.0068 27.1649 40.9863 27.133 40.959C27.1011 40.9316 27.0852 40.8906 27.0852 40.8359V40.2207C26.8163 40.5078 26.5155 40.7311 26.1829 40.8906C25.8547 41.0501 25.5061 41.1299 25.137 41.1299C24.8134 41.1299 24.5194 41.0866 24.2551 41C23.9954 40.918 23.772 40.7972 23.5852 40.6377C23.4029 40.4782 23.2593 40.2822 23.1545 40.0498C23.0543 39.8174 23.0041 39.5531 23.0041 39.2568C23.0041 38.9105 23.0748 38.6097 23.2161 38.3545C23.3573 38.0993 23.5601 37.8874 23.8245 37.7188C24.0888 37.5501 24.4123 37.4248 24.7952 37.3428C25.178 37.2562 25.6086 37.2129 26.0871 37.2129H26.9348V36.7344C26.9348 36.4974 26.9097 36.2878 26.8596 36.1055C26.8095 35.9232 26.7274 35.7728 26.6135 35.6543C26.5041 35.5312 26.3606 35.4401 26.1829 35.3809C26.0051 35.3171 25.7864 35.2852 25.5266 35.2852C25.2486 35.2852 24.998 35.3193 24.7746 35.3877C24.5559 35.4515 24.3622 35.5244 24.1936 35.6064C24.0295 35.6839 23.8905 35.7568 23.7766 35.8252C23.6672 35.889 23.5852 35.9209 23.5305 35.9209C23.494 35.9209 23.4621 35.9118 23.4348 35.8936C23.4075 35.8753 23.3824 35.848 23.3596 35.8115C23.3414 35.7751 23.3277 35.7295 23.3186 35.6748C23.3095 35.6156 23.3049 35.5518 23.3049 35.4834C23.3049 35.3695 23.3118 35.2806 23.3254 35.2168C23.3437 35.1484 23.3824 35.0846 23.4416 35.0254C23.5054 34.9661 23.6125 34.8978 23.7629 34.8203C23.9133 34.7383 24.0865 34.6654 24.2825 34.6016C24.4784 34.5332 24.6926 34.4785 24.925 34.4375C25.1575 34.3919 25.3922 34.3691 25.6291 34.3691C26.0712 34.3691 26.4472 34.4193 26.7571 34.5195C27.067 34.6198 27.3176 34.7679 27.509 34.9639C27.7004 35.1553 27.8394 35.3945 27.926 35.6816C28.0126 35.9688 28.0559 36.3037 28.0559 36.6865V40.8359ZM26.9348 38.0264H25.9709C25.661 38.0264 25.3922 38.0537 25.1643 38.1084C24.9364 38.1585 24.7473 38.236 24.5969 38.3408C24.4465 38.4411 24.3349 38.5641 24.262 38.71C24.1936 38.8512 24.1594 39.0153 24.1594 39.2021C24.1594 39.5212 24.2597 39.7764 24.4602 39.9678C24.6653 40.1546 24.9501 40.248 25.3147 40.248C25.6109 40.248 25.8843 40.1729 26.135 40.0225C26.3902 39.8721 26.6568 39.6419 26.9348 39.332V38.0264ZM33.7397 35.0801C33.7397 35.1803 33.7374 35.2646 33.7329 35.333C33.7283 35.4014 33.7192 35.4561 33.7055 35.4971C33.6919 35.5335 33.6736 35.5632 33.6509 35.5859C33.6326 35.6042 33.6053 35.6133 33.5688 35.6133C33.5324 35.6133 33.4868 35.6042 33.4321 35.5859C33.382 35.5632 33.3227 35.5426 33.2544 35.5244C33.1906 35.5016 33.1177 35.4811 33.0356 35.4629C32.9536 35.4447 32.8647 35.4355 32.769 35.4355C32.6551 35.4355 32.5434 35.4583 32.4341 35.5039C32.3247 35.5495 32.2085 35.6247 32.0854 35.7295C31.9669 35.8343 31.8416 35.9733 31.7095 36.1465C31.5773 36.3197 31.4315 36.5316 31.272 36.7822V40.8291C31.272 40.8656 31.2628 40.8975 31.2446 40.9248C31.2264 40.9476 31.1968 40.9681 31.1557 40.9863C31.1147 41.0046 31.0578 41.0182 30.9848 41.0273C30.9119 41.0365 30.8185 41.041 30.7046 41.041C30.5952 41.041 30.504 41.0365 30.4311 41.0273C30.3582 41.0182 30.299 41.0046 30.2534 40.9863C30.2124 40.9681 30.1828 40.9476 30.1645 40.9248C30.1509 40.8975 30.144 40.8656 30.144 40.8291V34.6768C30.144 34.6403 30.1509 34.6107 30.1645 34.5879C30.1782 34.5605 30.2055 34.5378 30.2466 34.5195C30.2876 34.4967 30.34 34.4831 30.4038 34.4785C30.4676 34.4694 30.5519 34.4648 30.6567 34.4648C30.757 34.4648 30.839 34.4694 30.9028 34.4785C30.9712 34.4831 31.0236 34.4967 31.06 34.5195C31.0965 34.5378 31.1216 34.5605 31.1352 34.5879C31.1535 34.6107 31.1626 34.6403 31.1626 34.6768V35.5723C31.3312 35.3262 31.4884 35.1257 31.6343 34.9707C31.7846 34.8158 31.9259 34.695 32.0581 34.6084C32.1902 34.5173 32.3201 34.4557 32.4477 34.4238C32.5799 34.3874 32.7121 34.3691 32.8442 34.3691C32.9035 34.3691 32.9695 34.3737 33.0425 34.3828C33.1199 34.3874 33.1997 34.3988 33.2817 34.417C33.3638 34.4352 33.4367 34.4557 33.5005 34.4785C33.5688 34.5013 33.6167 34.5241 33.644 34.5469C33.6714 34.5697 33.6896 34.5924 33.6987 34.6152C33.7078 34.6335 33.7147 34.6585 33.7192 34.6904C33.7283 34.7223 33.7329 34.7702 33.7329 34.834C33.7374 34.8932 33.7397 34.9753 33.7397 35.0801ZM38.2341 40.3779C38.2341 40.5101 38.225 40.6149 38.2068 40.6924C38.1885 40.7699 38.1612 40.8268 38.1247 40.8633C38.0883 40.8997 38.0336 40.9339 37.9607 40.9658C37.8877 40.9977 37.8034 41.0228 37.7077 41.041C37.6166 41.0638 37.5186 41.082 37.4138 41.0957C37.309 41.1094 37.2042 41.1162 37.0993 41.1162C36.7803 41.1162 36.5069 41.0752 36.279 40.9932C36.0512 40.9066 35.8643 40.779 35.7185 40.6104C35.5726 40.4372 35.4655 40.2207 35.3972 39.9609C35.3334 39.6966 35.3015 39.3867 35.3015 39.0312V35.4355H34.4402C34.3718 35.4355 34.3171 35.3991 34.2761 35.3262C34.2351 35.2533 34.2146 35.1348 34.2146 34.9707C34.2146 34.8841 34.2191 34.8112 34.2282 34.752C34.2419 34.6927 34.2579 34.6449 34.2761 34.6084C34.2943 34.5674 34.3171 34.54 34.3445 34.5264C34.3764 34.5081 34.4105 34.499 34.447 34.499H35.3015V33.0361C35.3015 33.0042 35.3083 32.9746 35.322 32.9473C35.3402 32.9199 35.3698 32.8971 35.4109 32.8789C35.4564 32.8561 35.5157 32.8402 35.5886 32.8311C35.6615 32.8219 35.7527 32.8174 35.862 32.8174C35.976 32.8174 36.0694 32.8219 36.1423 32.8311C36.2152 32.8402 36.2722 32.8561 36.3132 32.8789C36.3542 32.8971 36.3838 32.9199 36.4021 32.9473C36.4203 32.9746 36.4294 33.0042 36.4294 33.0361V34.499H38.0085C38.045 34.499 38.0769 34.5081 38.1042 34.5264C38.1316 34.54 38.1543 34.5674 38.1726 34.6084C38.1954 34.6449 38.2113 34.6927 38.2204 34.752C38.2295 34.8112 38.2341 34.8841 38.2341 34.9707C38.2341 35.1348 38.2136 35.2533 38.1726 35.3262C38.1316 35.3991 38.0769 35.4355 38.0085 35.4355H36.4294V38.8672C36.4294 39.291 36.4909 39.6123 36.614 39.8311C36.7416 40.0452 36.9672 40.1523 37.2907 40.1523C37.3956 40.1523 37.489 40.1432 37.571 40.125C37.653 40.1022 37.726 40.0794 37.7898 40.0566C37.8536 40.0339 37.9083 40.0133 37.9538 39.9951C37.9994 39.9723 38.0404 39.9609 38.0769 39.9609C38.0997 39.9609 38.1202 39.9678 38.1384 39.9814C38.1612 39.9906 38.1771 40.0111 38.1863 40.043C38.1999 40.0749 38.2113 40.1182 38.2204 40.1729C38.2295 40.2275 38.2341 40.2959 38.2341 40.3779Z" fill="white"/>
</svg>
